# xmcd
#
# Track frame offsets:
#	150
#	13370
#	26990
#	41698
#	56903
#	73442
#	90634
#	108868
#	127247
#	146057
#	165061
#	184422
#	203830
#	223026
#	243756
#	265636
#	291240
#	304484
#	321293
#
# Disc length: 4538 seconds
#
# Revision: 1
# Processed by: cddbd v1.5.2PL0 Copyright (c) Steve Scherf et al.
# Submitted via: audiograbber 1.83.01
#
DISCID=2e11b813
DTITLE=Country - Country Best of Cowboy Songs 2003
DYEAR=2003
DGENRE=Country
TTITLE0=Shania Twain - Come on Over
TTITLE1=Brooks and Dunn - My heart is lost to you
TTITLE2=Brad Paisley - I am gonna miss her
TTITLE3=Kenny Chasney - The good stuff
TTITLE4=George Strait - Living and Living well
TTITLE5=Leann Rimes - I need you
TTITLE6=Kellie Coffey - When you lie next to me
TTITLE7=Alan Jackson - Drive
TTITLE8=Lonestar - Not a day goes by
TTITLE9=Faith Hill - Breathe
TTITLE10=Gary Allan - The one
TTITLE11=Raul Malo - Today
TTITLE12=Dolly Parton - Little Sparrow
TTITLE13=Alison Krauss and U&nion Station - New Favorite
TTITLE14=Shania Twain - The woman in me
TTITLE15=Nitty Gritty Dirt Band - When the circle will unbroken
TTITLE16=Emerson Drive - I should be sleeping
TTITLE17=Dixie Chicks - Wide open Spaces
TTITLE18=Lonestar - I'm already there
EXTD=by \nAndreas
EXTT0=
EXTT1=
EXTT2=
EXTT3=
EXTT4=
EXTT5=
EXTT6=
EXTT7=
EXTT8=
EXTT9=
EXTT10=
EXTT11=
EXTT12=
EXTT13=
EXTT14=
EXTT15=
EXTT16=
EXTT17=
EXTT18=
PLAYORDER=
